<svg xmlns="http://www.w3.org/2000/svg" viewBox="0 0 24 24" fill="none" stroke="currentColor" stroke-width="2" stroke-linecap="round" stroke-linejoin="round" class="lucide lucide-sparkles">
  <path d="M9.9 10.8c-.4.7-.7 1.4-.7 2.2 0 .8.3 1.5.7 2.2l.8 1.3c.3.5.9.8 1.5.8.6 0 1.2-.3 1.5-.8l.8-1.3c.4-.7.7-1.4.7-2.2 0-.8-.3-1.5-.7-2.2l-.8-1.3c-.3-.5-.9-.8-1.5-.8-.6 0-1.2.3-1.5.8z"/>
  <path d="M12 2v2"/>
  <path d="M12 20v2"/>
  <path d="M22 12h-2"/>
  <path d="M4 12H2"/>
  <path d="m19.5 4.5-1.4 1.4"/>
  <path d="m6.5 17.5-1.4 1.4"/>
  <path d="m4.5 4.5 1.4 1.4"/>
  <path d="m17.5 6.5 1.4-1.4"/>
</svg>